<svg width="29" height="24" viewBox="0 0 29 24" fill="none" xmlns="http://www.w3.org/2000/svg">
<path d="M14.2489 7.28095C14.0881 7.64268 13.9408 7.93742 13.7264 8.41973C13.646 7.95082 13.6058 7.66948 13.5522 7.37473C13.4317 6.78524 12.9627 6.42351 12.4135 6.46371C11.8508 6.5039 11.3685 6.99961 11.422 7.60249C11.5158 8.95563 11.6632 10.3088 11.7838 11.6619C11.7972 11.7959 11.8776 11.9567 11.824 12.037C11.3953 12.7203 11.9044 13.0285 12.3331 13.3768C13.2173 14.0868 14.1283 14.7835 14.9724 15.5338C15.3341 15.8553 15.669 16.2974 15.8298 16.7529C16.4595 18.5616 17.0222 20.397 17.5715 22.2325C17.8662 23.1971 17.2097 24.0545 16.2585 23.9876C15.5619 23.934 15.2001 23.4919 14.9992 22.8622C14.5035 21.2947 14.0211 19.7138 13.4986 18.1463C13.3915 17.8113 13.1503 17.463 12.8824 17.2353C11.5828 16.1367 10.2833 15.0515 8.93012 14.0333C8.05928 13.3768 7.85832 12.5327 8.03249 11.5547C8.40761 9.57191 9.22486 7.76326 10.5646 6.23595C10.9397 5.80723 11.5158 5.51249 12.0517 5.28473C12.3197 5.17755 12.7216 5.35172 13.0565 5.40531C13.6594 5.52588 14.2489 5.65986 14.8518 5.76704C15.0929 5.80723 15.3609 5.72685 15.5753 5.79384C16.1245 5.968 16.5667 5.9948 16.7676 5.29813C16.7944 5.20435 17.0088 5.11056 17.1427 5.09717C17.6251 5.07037 18.1074 5.08377 18.7237 5.08377C18.3351 5.91441 18.0538 6.69146 17.6117 7.37473C17.4509 7.61589 16.915 7.74986 16.5801 7.70967C15.803 7.68287 15.0527 7.45511 14.2489 7.28095Z" fill="#2B7DA0"/>
<path d="M16.5664 4.86942C16.8745 4.14595 17.1425 3.46269 17.4506 2.80621C17.5176 2.67224 17.7588 2.55166 17.9196 2.55166C21.4833 2.53826 25.047 2.55166 28.6241 2.55166C28.6643 2.55166 28.7045 2.57845 28.7849 2.61864C28.7849 3.34211 28.7849 4.09236 28.7849 4.86942C24.7121 4.86942 20.6794 4.86942 16.5664 4.86942Z" fill="#2B7DA0"/>
<path d="M12.2394 4.86942C8.28712 4.86942 4.32148 4.86942 0.302246 4.86942C0.302246 4.10576 0.302246 3.3823 0.302246 2.57845C0.516605 2.56505 0.730963 2.53826 0.945322 2.53826C4.33487 2.53826 7.71103 2.55166 11.1006 2.53826C11.6231 2.53826 11.9044 2.59185 11.8776 3.26172C11.8642 3.77083 12.1054 4.30672 12.2394 4.86942Z" fill="#2B7DA0"/>
<path d="M9.6939 14.9845C10.6317 15.7347 11.5428 16.4582 12.4136 17.2085C12.5744 17.3558 12.6815 17.6774 12.6547 17.9051C12.5208 19.9147 11.8375 21.7368 10.7121 23.3847C10.27 24.0412 9.50634 24.1751 8.89006 23.7732C8.28717 23.3713 8.09961 22.621 8.51493 21.9511C9.42596 20.4774 10.0958 18.9367 10.002 17.1683C9.97525 16.4582 9.81448 15.7615 9.6939 14.9845Z" fill="#2B7DA0"/>
<path d="M12.6008 6.71827C13.0831 6.75846 13.3243 7.10679 13.3645 7.64268C13.4449 8.58051 13.4851 9.50493 13.619 10.4294C13.6592 10.7375 13.8602 11.0992 14.088 11.3136C14.9454 12.0906 15.843 12.8275 16.7272 13.5777C17.2497 14.0333 17.3435 14.4888 17.022 14.9041C16.6871 15.3328 16.1646 15.3194 15.6153 14.8639C14.5569 13.9797 13.4985 13.0954 12.4669 12.171C12.2257 11.9567 11.998 11.5949 11.9578 11.2868C11.8104 10.1212 11.73 8.94224 11.6496 7.76326C11.6094 7.09339 11.9578 6.71827 12.6008 6.71827Z" fill="#2B7DA0"/>
<path d="M16.2989 2.8464C14.986 2.73922 13.6864 2.63204 12.3735 2.49807C12.1725 2.48467 11.9849 2.3373 11.7974 2.25692C11.9179 2.10955 12.0385 1.94878 12.1457 1.80141C12.2395 1.66743 12.3467 1.52006 12.4136 1.37269C12.8692 0.421468 13.6998 -0.060842 14.7314 0.00614521C15.6826 0.0731324 16.4597 0.729608 16.741 1.69422C16.7946 1.86839 16.8482 2.02916 16.9152 2.18993C16.9956 2.3641 17.1161 2.52486 17.2233 2.69903C17.009 2.75262 16.7812 2.81961 16.5668 2.8598C16.4865 2.8732 16.3927 2.8464 16.2989 2.8464Z" fill="#2B7DA0"/>
<path d="M12.1988 2.72582C13.7128 2.85979 15.2401 2.99377 16.7674 3.12774C16.8879 4.02537 16.4592 4.84262 15.642 5.31153C14.7846 5.80723 13.7128 5.71345 12.9491 5.09717C12.2524 4.52108 11.9443 3.59665 12.1988 2.72582Z" fill="#2B7DA0"/>
</svg>
