<svg width="20" height="24" viewBox="0 0 20 24" fill="none" xmlns="http://www.w3.org/2000/svg">
<path d="M16.5371 23.9691C16.5371 18.6949 16.5371 13.4969 16.5371 8.2481C16.7405 8.20997 16.9692 8.15914 17.2107 8.12101C17.2107 7.93038 17.2107 7.76516 17.2107 7.56182C16.9692 7.5364 16.7659 7.51098 16.5371 7.48556C16.5371 4.99461 16.5371 2.51636 16.5371 -1.52588e-05C17.4522 -1.52588e-05 18.3672 -1.52588e-05 19.3458 -1.52588e-05C19.3585 0.228746 19.3839 0.444799 19.3839 0.67356C19.3839 8.20997 19.3712 15.7337 19.3966 23.2701C19.3966 23.8801 19.206 24.0326 18.6468 23.9945C17.9478 23.9437 17.2488 23.9691 16.5371 23.9691Z" fill="white" fill-opacity="0.87"/>
<path d="M8.30169 9.3919C7.93313 9.5317 7.47561 9.64608 7.08163 9.86214C6.56056 10.1417 6.31908 9.91297 6.10303 9.46816C5.82343 8.87084 5.53114 8.28623 5.22612 7.70161C4.89569 7.06616 4.37462 6.85011 3.82814 7.117C3.25623 7.38389 3.09102 7.95579 3.39603 8.62937C3.40874 8.65478 3.40873 8.66749 3.42144 8.69291C4.31107 9.9511 4.60338 11.2347 3.65021 12.62C3.38332 13.014 3.51041 13.3317 3.90439 13.624C4.88298 14.3738 5.82344 15.1491 6.76391 15.9497C7.0435 16.1912 7.29768 16.5089 7.41206 16.8521C8.00938 18.6186 8.55587 20.3852 9.10236 22.1644C9.31841 22.8888 9.05151 23.4989 8.45419 23.7657C7.9077 24.0072 7.27225 23.8547 6.92911 23.3591C6.78931 23.1557 6.70036 22.9015 6.62411 22.6601C6.16659 21.2367 5.73448 19.7878 5.25154 18.3644C5.13716 18.034 4.90839 17.6909 4.6415 17.4621C3.39602 16.4073 2.13784 15.3778 0.854238 14.3738C0.0917003 13.7765 -0.111649 13.0394 0.0535672 12.1243C0.396709 10.2942 1.14653 8.6675 2.29034 7.20596C2.82412 6.53239 3.47228 5.9859 4.37461 6.08757C4.83214 6.13841 5.36592 6.36717 5.69635 6.67219C6.39534 7.33305 6.99267 8.12101 7.64083 8.84542C7.83146 9.07418 8.08563 9.22669 8.30169 9.3919Z" fill="white" fill-opacity="0.87"/>
<path d="M1.7311 15.3651C2.59531 16.0641 3.45951 16.7631 4.32372 17.4875C4.42539 17.5765 4.47624 17.7925 4.46353 17.9323C4.39998 19.9149 3.70098 21.6942 2.5953 23.3082C2.18861 23.9055 1.40067 24.0072 0.841474 23.6132C0.294989 23.2193 0.155184 22.5076 0.549162 21.8594C1.28628 20.6775 1.88361 19.432 1.92174 18.0213C1.95986 17.1571 1.80736 16.2802 1.7311 15.3651Z" fill="white" fill-opacity="0.87"/>
<path d="M7.31012 4.13039C7.98369 4.47354 8.65727 4.80397 9.34355 5.14711C9.08937 6.17654 7.92015 6.8374 6.78906 6.55781C5.55629 6.25279 4.80647 5.04544 5.09877 3.83809C5.49275 2.19863 7.50077 1.55048 8.78437 2.63074C9.1021 2.89763 9.52148 3.06284 9.90275 3.25348C10.2459 3.41869 10.6144 3.54578 10.9322 3.73642C11.0847 3.82538 11.1482 4.06685 11.2499 4.23207C11.0593 4.34645 10.8813 4.53708 10.678 4.5625C9.6994 4.7023 8.74624 4.53708 7.8312 4.15581C7.67869 4.09227 7.53889 4.01601 7.39909 3.93976C7.37367 4.0033 7.34825 4.06685 7.31012 4.13039Z" fill="white" fill-opacity="0.87"/>
<path d="M6.30641 10.3705C7.45022 9.9511 8.51776 9.55712 9.57261 9.16314C10.0683 8.97251 10.4495 9.08689 10.691 9.55712C10.8943 9.97652 10.7037 10.4467 10.2208 10.6374C8.88632 11.1585 7.52647 11.6414 6.17932 12.137C5.7218 12.3023 5.37865 12.1116 5.17531 11.7049C4.62882 10.6374 4.09504 9.55712 3.56126 8.46415C3.3325 7.99392 3.40877 7.57452 3.89171 7.33305C4.36194 7.09158 4.75591 7.28222 4.99738 7.73974C5.42948 8.59124 5.84889 9.45545 6.30641 10.3705Z" fill="white" fill-opacity="0.87"/>
<path d="M16.9437 7.98121C16.537 7.98121 16.1303 7.99392 15.7236 7.98121C14.8086 7.94308 13.919 8.09559 13.1056 8.51499C12.9023 8.62937 12.6735 9.04876 12.737 9.2394C12.9023 9.70963 12.9022 10.1163 12.7116 10.5738C12.6481 10.7391 12.737 10.9678 12.7497 11.1966C12.5337 11.1966 12.3049 11.1966 12.0762 11.1966C12.0889 11.0441 12.1016 10.9043 12.127 10.7136C11.6695 10.7136 11.2501 10.7136 10.8815 10.7136C10.9069 10.2053 10.9451 9.72234 10.9705 9.17585C11.2882 9.13773 11.7076 9.07418 12.127 9.02334C12.127 8.94709 12.1143 8.87084 12.1143 8.79458C11.6949 8.79458 11.2501 8.69291 10.8688 8.82C10.2207 9.03605 9.67418 8.93438 9.22937 8.47686C9.03873 8.28623 8.87351 7.91766 8.92435 7.6889C8.96247 7.48556 9.33103 7.23138 9.5598 7.21867C10.6528 7.16784 11.822 6.9772 12.8387 7.24409C14.2113 7.61265 15.5457 7.85412 16.9691 7.75245C16.9564 7.81599 16.9437 7.89225 16.9437 7.98121Z" fill="white" fill-opacity="0.87"/>
</svg>
