<svg width="26" height="24" viewBox="0 0 26 24" fill="none" xmlns="http://www.w3.org/2000/svg">
<path d="M25.289 23.612C22.4107 23.612 19.5706 23.612 16.6924 23.612C16.6924 21.2049 16.6924 18.8106 16.6924 16.3527C17.3419 16.3527 18.0169 16.3527 18.7938 16.3527C18.7938 15.8305 18.781 15.372 18.7938 14.9135C18.7938 14.748 18.8447 14.455 18.8829 14.455C19.5707 14.3914 19.3032 13.8692 19.3159 13.5381C19.3414 12.5447 19.3287 11.5513 19.3287 10.456C19.9273 10.456 20.5131 10.456 21.1499 10.456C21.1499 8.67304 21.1499 6.99193 21.1499 5.22167C21.914 5.22167 22.6272 5.22167 23.4041 5.22167C23.4041 3.43867 23.4041 1.73209 23.4041 3.8147e-05C24.0663 3.8147e-05 24.6522 3.8147e-05 25.3017 3.8147e-05C25.289 7.85795 25.289 15.7031 25.289 23.612Z" fill="#2B7DA0"/>
<path d="M11.4962 9.94661C11.1269 11.3093 10.7703 12.6084 10.4519 13.9201C10.4137 14.0857 10.5792 14.3531 10.7193 14.4805C11.4453 15.1682 12.2221 15.7923 12.9353 16.4927C13.2155 16.7729 13.4702 17.155 13.5721 17.5498C13.9924 19.0653 14.3617 20.5809 14.7311 22.1092C14.9731 23.0771 14.6547 23.7648 13.9033 23.9559C13.1264 24.1469 12.5405 23.7139 12.2985 22.746C11.9674 21.4342 11.649 20.1097 11.2924 18.8106C11.2033 18.505 11.0123 18.1993 10.783 17.9701C10.0826 17.2951 9.34388 16.6583 8.61795 16.0088C8.45239 15.8687 8.28682 15.7286 8.10852 15.5885C8.07031 15.6395 8.01937 15.6904 7.98117 15.7286C8.59248 16.2762 9.17832 16.8748 9.84057 17.3715C10.3755 17.779 10.541 18.1866 10.35 18.8743C9.9934 20.1988 9.76415 21.5615 9.47123 22.9115C9.34388 23.4719 9.01275 23.8667 8.42691 23.9686C7.89202 24.0577 7.42079 23.8794 7.17881 23.3955C7.02598 23.0771 6.97504 22.6568 7.03872 22.3002C7.25523 21.0649 7.53541 19.855 7.8156 18.6323C7.91748 18.2121 7.82833 17.9319 7.48447 17.6517C6.72033 17.0149 5.9944 16.3272 5.24299 15.6649C4.72083 15.2064 4.50432 14.6843 4.77176 14.022C5.29393 12.6848 5.34487 11.3603 4.75903 10.0358C4.49158 9.44991 4.66989 9.00416 5.12837 8.57115C7.14061 6.64806 6.24911 6.89004 8.87266 7.55229C10.4392 7.9471 11.9802 8.39285 13.5212 8.86407C13.9287 8.99143 14.107 8.90228 14.349 8.57115C14.7565 7.97257 15.266 7.43767 15.699 6.85183C15.8009 6.71174 15.8391 6.49523 15.8391 6.3042C15.8391 5.79477 16.1065 5.5528 16.5777 5.43817C16.9089 5.36176 17.2145 5.18346 17.5329 5.10705C18.2843 4.91601 18.8702 4.63583 18.8065 3.70613C18.7938 3.5915 18.9975 3.45141 19.0994 3.32405C19.1631 3.47688 19.2268 3.64244 19.2777 3.79527C19.2777 3.808 19.265 3.83348 19.265 3.85895C19.3287 4.77592 18.9338 5.32356 18.0041 5.48912C17.6348 5.5528 17.2909 5.74383 16.9216 5.87119C16.2721 6.11317 16.1447 6.57165 16.4376 7.18296C16.565 7.46315 16.6032 7.9089 16.4631 8.16361C16.0683 8.91502 15.5716 9.60274 15.1131 10.3159C14.8202 10.7744 14.4254 10.8254 13.9415 10.6853C13.1518 10.4433 12.3495 10.2013 11.4962 9.94661Z" fill="#2B7DA0"/>
<path d="M0.00897301 21.2559C0.00897301 20.4535 -0.016489 19.6894 0.0344537 18.9252C0.0471894 18.7597 0.289161 18.4922 0.441989 18.4922C1.42264 18.454 2.41603 18.4413 3.40941 18.4922C3.56224 18.505 3.81694 18.8488 3.81694 19.0399C3.85515 20.4153 3.82969 21.7908 3.84242 23.179C3.84242 23.5483 3.72779 23.7903 3.3712 23.7903C2.40328 23.8157 1.43538 23.8157 0.46747 23.7648C0.301906 23.7521 0.123603 23.4337 0.0344537 23.2172C-0.0419604 23.0516 0.0344568 22.8351 0.0217211 22.6568C-0.0164859 21.9945 -0.0929031 21.4214 0.862273 21.2304C1.58821 21.0903 1.86839 20.3262 2.09763 19.6512C2.13583 19.5493 2.04669 19.4219 2.02122 19.2946C1.9448 19.3965 1.81745 19.4729 1.80472 19.5875C1.62642 20.5936 1.16792 21.0648 0.00897301 21.2559ZM2.97639 21.2559C3.05281 21.2559 3.12922 21.2559 3.21837 21.2559C3.21837 20.4281 3.21837 19.613 3.21837 18.6833C2.39055 18.6833 1.43538 18.6833 0.46747 18.6833C0.46747 18.7597 0.454722 18.8488 0.454722 18.9252C1.15518 18.9762 1.84291 19.0271 2.55611 19.0653C2.59432 19.2436 2.63253 19.4219 2.70895 19.7531C2.78536 19.4601 2.82356 19.3328 2.84904 19.2054C2.88724 19.2054 2.92545 19.2054 2.97639 19.2182C2.97639 19.9059 2.97639 20.5809 2.97639 21.2559Z" fill="#2B7DA0"/>
<path d="M11.5601 5.84571C11.9804 5.92212 12.2606 5.97306 12.5789 6.024C12.7063 6.81362 12.3624 7.41219 11.7893 7.89615C11.6874 7.9853 11.4709 7.99804 11.3308 7.97257C10.4521 7.75606 9.56059 7.55229 8.7073 7.25937C8.47806 7.18295 8.22334 6.85182 8.15966 6.59711C7.79032 4.916 9.40775 3.43866 11.0252 4.01177C11.5856 4.2028 12.1077 4.25375 12.6681 4.25375C13.1775 4.26649 13.7506 4.1646 14.0563 4.75044C13.6615 5.01789 13.2794 5.34901 12.8464 5.54005C12.5153 5.70561 12.095 5.73109 11.5601 5.84571Z" fill="#2B7DA0"/>
<path d="M18.5394 4.24102C16.8965 4.06272 15.3045 3.88442 13.6616 3.70613C13.7126 3.23491 13.7508 2.82736 13.789 2.3052C15.4319 2.4835 17.0366 2.66179 18.6922 2.84009C18.6413 3.31131 18.6031 3.71885 18.5394 4.24102Z" fill="#2B7DA0"/>
</svg>
