<svg width="25" height="24" viewBox="0 0 25 24" fill="none" xmlns="http://www.w3.org/2000/svg">
<path fill-rule="evenodd" clip-rule="evenodd" d="M4.56848 3.172C3.39648 4.343 3.39648 6.229 3.39648 10V14C3.39648 17.771 3.39648 19.657 4.56848 20.828C5.74048 21.999 7.62548 22 11.3965 22H13.3965C17.1675 22 19.0535 22 20.2245 20.828C21.3955 19.656 21.3965 17.771 21.3965 14V10C21.3965 6.229 21.3965 4.343 20.2245 3.172C19.0525 2.001 17.1675 2 13.3965 2H11.3965C7.62548 2 5.73948 2 4.56848 3.172ZM7.64648 8C7.64648 7.80109 7.7255 7.61032 7.86615 7.46967C8.00681 7.32902 8.19757 7.25 8.39648 7.25H16.3965C16.5954 7.25 16.7862 7.32902 16.9268 7.46967C17.0675 7.61032 17.1465 7.80109 17.1465 8C17.1465 8.19891 17.0675 8.38968 16.9268 8.53033C16.7862 8.67098 16.5954 8.75 16.3965 8.75H8.39648C8.19757 8.75 8.00681 8.67098 7.86615 8.53033C7.7255 8.38968 7.64648 8.19891 7.64648 8ZM7.64648 12C7.64648 11.8011 7.7255 11.6103 7.86615 11.4697C8.00681 11.329 8.19757 11.25 8.39648 11.25H16.3965C16.5954 11.25 16.7862 11.329 16.9268 11.4697C17.0675 11.6103 17.1465 11.8011 17.1465 12C17.1465 12.1989 17.0675 12.3897 16.9268 12.5303C16.7862 12.671 16.5954 12.75 16.3965 12.75H8.39648C8.19757 12.75 8.00681 12.671 7.86615 12.5303C7.7255 12.3897 7.64648 12.1989 7.64648 12ZM8.39648 15.25C8.19757 15.25 8.00681 15.329 7.86615 15.4697C7.7255 15.6103 7.64648 15.8011 7.64648 16C7.64648 16.1989 7.7255 16.3897 7.86615 16.5303C8.00681 16.671 8.19757 16.75 8.39648 16.75H13.3965C13.5954 16.75 13.7862 16.671 13.9268 16.5303C14.0675 16.3897 14.1465 16.1989 14.1465 16C14.1465 15.8011 14.0675 15.6103 13.9268 15.4697C13.7862 15.329 13.5954 15.25 13.3965 15.25H8.39648Z" fill="#2B7DA0"/>
</svg>
